<svg preserveAspectRatio="none" width="100%" height="100%" overflow="visible" style="display: block;" viewBox="0 0 449 542" fill="none" xmlns="http://www.w3.org/2000/svg">
<g id="a" clip-path="url(#clip0_0_20)">
<g id="Group">
<path id="Vector" d="M416.743 45.882H62.5705C49.5782 45.882 39.0134 56.4328 39.0134 69.408V311.793C39.0134 324.769 49.5782 335.319 62.5705 335.319H416.743C429.735 335.319 440.3 324.769 440.3 311.793V69.408C440.3 56.4328 429.735 45.882 416.743 45.882Z" fill="var(--fill-0, #E4EDF2)"/>
<path id="Vector_2" d="M378.318 64.5519H24.1457C11.1535 64.5519 0.588703 75.1028 0.588703 88.078V330.463C0.588703 343.438 11.1535 353.989 24.1457 353.989H378.318C391.311 353.989 401.875 343.438 401.875 330.463V88.078C401.875 75.1028 391.311 64.5519 378.318 64.5519ZM399.398 259.123C399.398 310.15 357.978 351.516 306.884 351.516H24.1457C12.5036 351.516 3.06578 342.09 3.06578 330.463V88.078C3.06578 76.4512 12.5036 67.0258 24.1457 67.0258H378.318C389.961 67.0258 399.398 76.4512 399.398 88.078V259.123Z" fill="var(--fill-0, #3F3D56)"/>
</g>
<g id="Group_2">
<path id="Vector_3" d="M51.1783 301.461L49.0822 300.143C50.4448 297.98 51.8508 295.884 53.2599 293.912L55.2762 295.35C53.8943 297.282 52.516 299.338 51.1783 301.461Z" fill="var(--fill-0, #0FA8FE)"/>
<path id="Vector_4" d="M64.8367 283.831L63.0636 282.104C66.8433 278.236 70.8214 274.915 74.8866 272.234L76.2521 274.298C72.3339 276.882 68.4931 280.089 64.8367 283.831ZM126.634 268.217C123.676 268.217 120.982 267.839 118.964 267.509L119.365 265.068C121.409 265.402 123.871 265.743 126.634 265.743C129.075 265.743 131.474 265.475 133.968 264.924L134.503 267.34C131.831 267.93 129.257 268.217 126.634 268.217ZM89.5694 267.889L88.8244 265.53C91.4853 264.692 94.2418 264.064 97.017 263.662C99.4003 263.318 101.679 263.151 103.983 263.151H104.135V265.624H103.983C101.799 265.624 99.6368 265.783 97.372 266.111C94.7286 266.493 92.1027 267.091 89.5694 267.889ZM148.612 260.74L147.029 258.838C150.447 256.002 152.897 252.573 155.491 248.943L156.526 247.499L158.536 248.945L157.508 250.38C154.818 254.144 152.277 257.7 148.612 260.74ZM168.477 238.058L166.953 236.107C170.292 233.505 174.065 231.397 178.485 229.662C179.238 229.366 179.958 229.102 180.649 228.867L181.448 231.208C180.791 231.432 180.108 231.682 179.392 231.964C175.196 233.611 171.626 235.604 168.477 238.058ZM198.382 229.465C197.549 229.465 196.758 229.457 195.999 229.449L196.028 226.975C196.804 226.984 197.614 226.986 198.472 226.991C201.387 226.991 205.447 226.909 211.015 226.265L211.301 228.722C205.548 229.387 201.424 229.457 198.382 229.465ZM226.369 226.226L225.878 223.801C230.327 222.903 235.503 221.833 240.626 220.513L241.246 222.908C236.064 224.243 230.849 225.321 226.369 226.226ZM255.837 218.218L254.911 215.924C259.878 213.924 264.19 211.669 268.096 209.028L269.484 211.077C265.432 213.817 260.968 216.153 255.837 218.218ZM280.865 200.542L278.855 199.096C279.546 198.138 280.144 197.204 280.721 196.3C282.427 193.633 284.191 190.875 288.391 187.489L288.685 187.254L290.219 189.195L289.947 189.413C286.061 192.546 284.482 195.017 282.809 197.632C282.213 198.564 281.596 199.528 280.865 200.542ZM303.087 181.988L302.183 179.684C306.598 177.956 311.584 176.565 317.003 175.55L317.461 177.981C312.194 178.968 307.358 180.316 303.087 181.988Z" fill="var(--fill-0, #0FA8FE)"/>
<path id="Vector_5" d="M332.601 176.165L332.447 173.696C334.853 173.545 337.37 173.446 339.926 173.4L339.971 175.874C337.451 175.919 334.971 176.017 332.601 176.165Z" fill="var(--fill-0, #0FA8FE)"/>
</g>
<g id="Group_3">
<path id="Vector_6" d="M78.8002 91.3573H44.0467C42.3004 91.3573 40.876 92.7798 40.876 94.5238C40.876 96.2802 42.3004 97.7027 44.0467 97.7027H78.8002C80.5465 97.7027 81.9708 96.2802 81.9708 94.5238C81.9708 92.7798 80.5465 91.3573 78.8002 91.3573Z" fill="var(--fill-0, #0F62AC)"/>
<path id="Vector_7" d="M137.011 91.3573H102.258C100.511 91.3573 99.0869 92.7798 99.0869 94.5238C99.0869 96.2802 100.511 97.7027 102.258 97.7027H137.011C138.757 97.7027 140.182 96.2802 140.182 94.5238C140.182 92.7798 138.757 91.3573 137.011 91.3573Z" fill="var(--fill-0, #0F62AC)"/>
<path id="Vector_8" d="M195.223 91.3573H160.469C158.723 91.3573 157.299 92.7798 157.299 94.5238C157.299 96.2802 158.723 97.7027 160.469 97.7027H195.223C196.969 97.7027 198.394 96.2802 198.394 94.5238C198.394 92.7798 196.969 91.3573 195.223 91.3573Z" fill="var(--fill-0, #0F62AC)"/>
</g>
<path id="Vector_9" d="M356.668 299.565H40.8408V302.039H356.668V299.565Z" fill="var(--fill-0, #0F62AC)"/>
<path id="Vector_10" d="M339.986 118.976C317.507 119.557 300.737 126.163 290.11 138.581C286.184 143.182 284.586 146.807 282.902 150.641C281.23 154.426 279.521 158.322 275.545 163.406V159.2C278.01 155.589 279.335 152.571 280.635 149.639C282.394 145.632 284.066 141.847 288.228 136.986C299.325 123.998 316.714 117.108 339.912 116.502L339.986 118.976Z" fill="var(--fill-0, #0FA8FE)"/>
<path id="Vector_11" d="M282.902 150.641C281.23 154.426 279.521 158.322 275.545 163.406C275.074 164.012 274.566 164.643 274.021 165.298C259.679 182.331 240.519 187.922 225.112 192.424C224.145 192.708 223.204 192.968 222.288 193.215C208.589 196.926 201.084 196.79 195.498 196.704C189.887 196.605 186.184 196.543 179.558 200.328C167.408 207.242 162.429 217.36 157.611 227.144C152.645 237.212 147.963 246.724 136.023 251.19C127.738 254.282 121.916 252.748 115.761 251.14C110.472 249.742 100.941 215.339 92.5011 210.322C75.0749 213.971 64.4854 270.844 51.2701 301.297L48.9912 300.307C62.5532 269.088 73.7248 211.732 91.9809 207.898C100.118 206.191 110.831 247.281 116.393 248.74C122.164 250.262 127.601 251.684 135.156 248.864C146.179 244.758 150.44 236.087 155.382 226.056C160.138 216.408 165.525 205.473 178.319 198.176C185.54 194.057 189.739 194.131 195.535 194.23C201.059 194.329 208.515 194.452 222.288 190.655C222.981 190.457 223.687 190.259 224.418 190.049C239.503 185.646 258.267 180.166 272.114 163.715C273.476 162.095 274.604 160.598 275.545 159.2C278.01 155.589 279.335 152.571 280.635 149.639C282.394 145.632 284.586 146.807 282.902 150.641Z" fill="var(--fill-0, #0F62AC)"/>
<g id="Group_4">
<path id="Vector_12" d="M150.825 433.622C149.844 430.212 148.165 427.304 146.166 425.23L138.904 392.167L123.074 396.04L132.145 429.162C131.549 431.964 131.668 435.31 132.649 438.719C134.888 446.508 140.773 451.681 145.792 450.274C150.811 448.866 153.064 441.411 150.825 433.622Z" fill="var(--fill-0, #FFB6B6)"/>
<path id="Vector_13" d="M148.635 216.741C148.635 216.741 123.636 216.229 117.279 234.41C111.493 250.959 104.634 296.424 108.342 299.051L124.124 410.973L146.63 407.885L140.854 273.595L148.635 216.741Z" fill="var(--fill-0, #0F62AC)"/>
</g>
<path id="Vector_14" d="M264.398 424.493L259.964 542H201.133L198.755 489.345L188.302 542H125.248L133.113 451.483L141.238 432.447L146.737 419.546L264.398 424.493Z" fill="var(--fill-0, #2F2E41)"/>
<path id="Vector_15" d="M217.333 194.428L176.461 191.954L162.837 209.271L133.112 220.403L146.736 352.752L140.544 431.915C140.544 431.915 227.241 501.182 264.398 424.493L254.489 331.725L256.966 224.114L228.48 211.744L217.333 194.428Z" fill="var(--fill-0, #0F62AC)"/>
<g id="Group_5">
<path id="Vector_16" d="M296.018 164.323C296.461 168.611 295.898 172.644 294.601 175.877L301.41 216.463L281.977 219.133L277.163 177.676C275.232 174.775 273.856 170.943 273.412 166.654C272.399 156.858 276.638 148.394 282.881 147.75C289.123 147.106 295.005 154.526 296.018 164.323Z" fill="var(--fill-0, #FFB6B6)"/>
<path id="Vector_17" d="M262.171 228.76C255.472 217.325 238.854 216.247 231.412 227.214C229.377 230.212 229.944 233.582 229.458 237.631C227.396 254.82 260.378 305.612 283.199 311.46C286.194 312.227 287.9 315.453 290.922 316.102C299.876 318.024 308.213 310.926 307.73 301.793L301.531 184.647L275.488 193.518L277.155 254.338L262.171 228.76Z" fill="var(--fill-0, #0F62AC)"/>
</g>
<g id="Group_6">
<path id="Vector_18" d="M201.138 188.753C221.021 188.753 237.14 172.656 237.14 152.799C237.14 132.942 221.021 116.845 201.138 116.845C181.255 116.845 165.137 132.942 165.137 152.799C165.137 172.656 181.255 188.753 201.138 188.753Z" fill="var(--fill-0, #FFB6B6)"/>
<path id="Vector_19" d="M234.673 126.398C234.363 126.472 239.412 121.557 239.627 121.45C244.581 118.976 239.491 143.158 235.911 142.477C227.105 140.808 223.303 137.493 219.885 145.768C218.931 148.068 218.336 150.666 216.479 152.311C213.927 154.55 209.691 154.364 207.611 157.036C205.939 159.188 206.422 162.355 207.66 164.779C208.899 167.216 210.781 169.281 211.908 171.767C213.172 174.563 207.784 183.456 205.728 188.453V188.466L205.716 188.495C205.169 189.806 203.871 186.03 202.501 185.653C200.861 185.202 198.444 189.07 195.832 188.367C195.82 188.367 195.807 188.354 195.795 188.354C193.305 187.662 190.531 186.92 187.782 186.177H187.769C180.028 184.075 178.071 187.093 177.7 187.006L172.894 181.984C171.245 180.785 171.432 176.914 170.269 175.874C169.318 175.024 166.947 176.989 166.248 176.171C162.822 172.164 162.033 168.155 160.013 160.239C158.168 153.004 154.341 131.345 162.206 130.368C169.625 129.44 164.2 119.125 171.668 119.508C171.222 117.628 172.052 115.612 173.402 114.226C174.74 112.829 176.523 111.963 178.319 111.221C187.175 107.609 185.701 104.504 195.039 106.607C195.968 105.308 209.456 106.174 211.14 106.607C211.264 106.632 206.967 107.658 213.617 106.607C213.37 108.128 217.581 108.796 217.333 110.318C218.262 109.068 228.245 116.242 228.48 117.739C228.79 119.607 225.966 118.654 227.848 118.939C228.963 119.112 230.87 121.376 230.685 122.501C231.49 121.413 232.295 120.337 233.112 119.248C233.261 119.261 233.397 119.285 233.546 119.31C237.311 120.027 232.994 132.32 233.149 128.488C233.434 121.45 238.425 125.569 234.673 126.398Z" fill="var(--fill-0, #2F2E41)"/>
</g>
<path id="Vector_20" d="M372.596 317.762C372.874 318.444 373.831 318.444 374.108 317.762C376.042 313.001 378.795 307.668 381.79 303.593C382.27 302.941 381.609 302.069 380.847 302.345L374.427 304.664V264.976H372.278V304.664L365.856 302.344C365.094 302.069 364.433 302.941 364.912 303.593C367.907 307.668 370.661 313.001 372.596 317.762Z" fill="var(--fill-0, #3F3D56)"/>
<path id="Vector_21" d="M414.695 358.626C414.488 359.333 415.238 359.928 415.88 359.565C420.359 357.038 425.836 354.572 430.718 353.241C431.5 353.028 431.525 351.935 430.757 351.677L424.286 349.506L449 318.427L447.317 317.092L422.603 348.172L419.018 342.366C418.593 341.678 417.533 341.95 417.502 342.758C417.309 347.81 416.145 353.696 414.695 358.626Z" fill="var(--fill-0, #3F3D56)"/>
<g id="Group_7">
<path id="Vector_22" d="M394.589 385.111H352.824C350.231 385.111 348.121 383.005 348.121 380.415C342.599 364.296 342.708 348.501 348.121 333.013C348.121 330.423 350.231 328.316 352.824 328.316H394.589C397.182 328.316 399.292 330.423 399.292 333.013V380.415C399.292 383.005 397.182 385.111 394.589 385.111Z" fill="var(--fill-0, #0F62AC)"/>
<path id="Vector_23" d="M361.772 329.715C355.007 329.715 349.522 335.193 349.522 341.949V379.409C349.522 381.786 351.451 383.712 353.831 383.712H376.927C388.505 383.712 397.891 374.339 397.891 362.776V334.018C397.891 331.642 395.962 329.715 393.582 329.715H361.772Z" fill="var(--fill-0, white)"/>
<g id="Group_8">
<path id="Vector_24" d="M383.433 343.491H363.88C363.387 343.491 362.985 343.09 362.985 342.598C362.985 342.106 363.387 341.705 363.88 341.705H383.433C383.926 341.705 384.327 342.106 384.327 342.598C384.327 343.09 383.926 343.491 383.433 343.491Z" fill="var(--fill-0, #0F62AC)"/>
<path id="Vector_25" d="M383.433 362.53H363.88C363.387 362.53 362.985 362.129 362.985 361.637C362.985 361.145 363.387 360.744 363.88 360.744H383.433C383.926 360.744 384.327 361.145 384.327 361.637C384.327 362.129 383.926 362.53 383.433 362.53Z" fill="var(--fill-0, #0F62AC)"/>
<path id="Vector_26" d="M393.926 353.017H353.386C352.893 353.017 352.492 352.616 352.492 352.124C352.492 351.631 352.893 351.231 353.386 351.231H393.926C394.419 351.231 394.82 351.631 394.82 352.124C394.82 352.616 394.419 353.017 393.926 353.017Z" fill="var(--fill-0, #0F62AC)"/>
</g>
<path id="Vector_27" d="M394.405 370.271H377.489C376.996 370.271 376.595 369.871 376.595 369.378C376.595 368.886 376.996 368.486 377.489 368.486H394.405C394.898 368.486 395.298 368.886 395.298 369.378C395.298 369.871 394.898 370.271 394.405 370.271Z" fill="var(--fill-0, #0F62AC)"/>
</g>
<g id="Group_9">
<path id="Vector_28" d="M15.4363 30.5795C23.9615 30.5795 30.8725 23.8229 30.8725 15.4883C30.8725 7.15369 23.9615 0.397135 15.4363 0.397135C6.91105 0.397135 0 7.15369 0 15.4883C0 23.8229 6.91105 30.5795 15.4363 30.5795Z" fill="var(--fill-0, #0F62AC)"/>
<path id="Vector_29" d="M139.183 10.3255H56.0953C53.2449 10.3255 50.9258 8.00944 50.9258 5.16277C50.9258 2.31611 53.2449 0 56.0953 0H139.183C142.033 0 144.352 2.31611 144.352 5.16277C144.352 8.00944 142.033 10.3255 139.183 10.3255Z" fill="var(--fill-0, #E4EDF2)"/>
<path id="Vector_30" d="M204.024 27.7995H56.0953C53.2449 27.7995 50.9258 25.4834 50.9258 22.6368C50.9258 19.7901 53.2449 17.474 56.0953 17.474H204.024C206.875 17.474 209.194 19.7901 209.194 22.6368C209.194 25.4834 206.875 27.7995 204.024 27.7995Z" fill="var(--fill-0, #E4EDF2)"/>
</g>
</g>
<defs>
<clipPath id="clip0_0_20">
<rect width="449" height="542" fill="white"/>
</clipPath>
</defs>
</svg>
