<svg preserveAspectRatio="none" width="100%" height="100%" overflow="visible" style="display: block;" viewBox="0 0 100 20" fill="none" xmlns="http://www.w3.org/2000/svg">
<g id="Frame 3">
<path id="Star 8" d="M9.51536 1.90955C9.64294 1.40688 10.3571 1.40688 10.4846 1.90955L11.7786 7.00795C11.8379 7.2416 12.0555 7.39968 12.296 7.38387L17.5447 7.039C18.0622 7.005 18.2829 7.68417 17.8442 7.96083L13.3952 10.7669C13.1913 10.8955 13.1082 11.1513 13.1976 11.3752L15.1475 16.2604C15.3398 16.7421 14.762 17.1619 14.3634 16.8302L10.3198 13.466C10.1345 13.3119 9.86553 13.3119 9.68022 13.466L5.63663 16.8302C5.23796 17.1619 4.66023 16.7421 4.85248 16.2604L6.80241 11.3752C6.89177 11.1513 6.80867 10.8955 6.60478 10.7669L2.15577 7.96083C1.71712 7.68417 1.9378 7.005 2.45529 7.039L7.704 7.38387C7.94454 7.39968 8.16212 7.2416 8.22142 7.00795L9.51536 1.90955Z" fill="url(#paint0_linear_0_14)"/>
<path id="Star 7" d="M29.5154 1.90955C29.6429 1.40688 30.3571 1.40688 30.4846 1.90955L31.7786 7.00795C31.8379 7.2416 32.0555 7.39968 32.296 7.38387L37.5447 7.039C38.0622 7.005 38.2829 7.68417 37.8442 7.96083L33.3952 10.7669C33.1913 10.8955 33.1082 11.1513 33.1976 11.3752L35.1475 16.2604C35.3398 16.7421 34.762 17.1619 34.3634 16.8302L30.3198 13.466C30.1345 13.3119 29.8655 13.3119 29.6802 13.466L25.6366 16.8302C25.238 17.1619 24.6602 16.7421 24.8525 16.2604L26.8024 11.3752C26.8918 11.1513 26.8087 10.8955 26.6048 10.7669L22.1558 7.96083C21.7171 7.68417 21.9378 7.005 22.4553 7.039L27.704 7.38387C27.9445 7.39968 28.1621 7.2416 28.2214 7.00795L29.5154 1.90955Z" fill="url(#paint1_linear_0_14)"/>
<path id="Star 3" d="M49.5154 1.90955C49.6429 1.40688 50.3571 1.40688 50.4846 1.90955L51.7786 7.00795C51.8379 7.2416 52.0555 7.39968 52.296 7.38387L57.5447 7.039C58.0622 7.005 58.2829 7.68417 57.8442 7.96083L53.3952 10.7669C53.1913 10.8955 53.1082 11.1513 53.1976 11.3752L55.1475 16.2604C55.3398 16.7421 54.762 17.1619 54.3634 16.8302L50.3198 13.466C50.1345 13.3119 49.8655 13.3119 49.6802 13.466L45.6366 16.8302C45.238 17.1619 44.6602 16.7421 44.8525 16.2604L46.8024 11.3752C46.8918 11.1513 46.8087 10.8955 46.6048 10.7669L42.1558 7.96083C41.7171 7.68417 41.9378 7.005 42.4553 7.039L47.704 7.38387C47.9445 7.39968 48.1621 7.2416 48.2214 7.00795L49.5154 1.90955Z" fill="url(#paint2_linear_0_14)"/>
<path id="Star 4" d="M69.5154 1.90955C69.6429 1.40688 70.3571 1.40688 70.4846 1.90955L71.7786 7.00795C71.8379 7.2416 72.0555 7.39968 72.296 7.38387L77.5447 7.039C78.0622 7.005 78.2829 7.68417 77.8442 7.96083L73.3952 10.7669C73.1913 10.8955 73.1082 11.1513 73.1976 11.3752L75.1475 16.2604C75.3398 16.7421 74.762 17.1619 74.3634 16.8302L70.3198 13.466C70.1345 13.3119 69.8655 13.3119 69.6802 13.466L65.6366 16.8302C65.238 17.1619 64.6602 16.7421 64.8525 16.2604L66.8024 11.3752C66.8918 11.1513 66.8087 10.8955 66.6048 10.7669L62.1558 7.96083C61.7171 7.68417 61.9378 7.005 62.4553 7.039L67.704 7.38387C67.9445 7.39968 68.1621 7.2416 68.2214 7.00795L69.5154 1.90955Z" fill="url(#paint3_linear_0_14)"/>
<path id="Star 5" d="M89.5154 1.90955C89.6429 1.40688 90.3571 1.40688 90.4846 1.90955L91.7786 7.00795C91.8379 7.2416 92.0555 7.39968 92.296 7.38387L97.5447 7.039C98.0622 7.005 98.2829 7.68417 97.8442 7.96083L93.3952 10.7669C93.1913 10.8955 93.1082 11.1513 93.1976 11.3752L95.1475 16.2604C95.3398 16.7421 94.762 17.1619 94.3634 16.8302L90.3198 13.466C90.1345 13.3119 89.8655 13.3119 89.6802 13.466L85.6366 16.8302C85.238 17.1619 84.6602 16.7421 84.8525 16.2604L86.8024 11.3752C86.8918 11.1513 86.8087 10.8955 86.6048 10.7669L82.1558 7.96083C81.7171 7.68417 81.9378 7.005 82.4553 7.039L87.704 7.38387C87.9445 7.39968 88.1621 7.2416 88.2214 7.00795L89.5154 1.90955Z" fill="url(#paint4_linear_0_14)"/>
</g>
<defs>
<linearGradient id="paint0_linear_0_14" x1="10" y1="0" x2="10" y2="20" gradientUnits="userSpaceOnUse">
<stop stop-color="#FFC700"/>
<stop offset="1" stop-color="#F1DE9B"/>
</linearGradient>
<linearGradient id="paint1_linear_0_14" x1="30" y1="0" x2="30" y2="20" gradientUnits="userSpaceOnUse">
<stop stop-color="#FFC700"/>
<stop offset="1" stop-color="#F1DE9B"/>
</linearGradient>
<linearGradient id="paint2_linear_0_14" x1="50" y1="0" x2="50" y2="20" gradientUnits="userSpaceOnUse">
<stop stop-color="#FFC700"/>
<stop offset="1" stop-color="#F1DE9B"/>
</linearGradient>
<linearGradient id="paint3_linear_0_14" x1="70" y1="0" x2="70" y2="20" gradientUnits="userSpaceOnUse">
<stop stop-color="#FFC700"/>
<stop offset="1" stop-color="#F1DE9B"/>
</linearGradient>
<linearGradient id="paint4_linear_0_14" x1="90" y1="0" x2="90" y2="20" gradientUnits="userSpaceOnUse">
<stop stop-color="#FFC700"/>
<stop offset="1" stop-color="#F1DE9B"/>
</linearGradient>
</defs>
</svg>
