<svg preserveAspectRatio="none" width="100%" height="100%" overflow="visible" style="display: block;" viewBox="0 0 55.2472 30.0543" fill="none" xmlns="http://www.w3.org/2000/svg">
<g id="Universidade Federal Fluminense">
<path id="Vector" d="M46.5605 25.8856C46.2618 25.8856 46.0295 25.9791 45.8635 26.1662C45.7005 26.3533 45.598 26.6068 45.5557 26.9266H47.5608C47.5397 26.5857 47.4356 26.3277 47.2485 26.1526C47.0645 25.9746 46.8351 25.8856 46.5605 25.8856ZM46.5605 24.8219C46.9709 24.8219 47.3406 24.8989 47.6695 25.0528C47.9984 25.2067 48.27 25.4496 48.4842 25.7815C48.6773 26.0742 48.8025 26.4137 48.8599 26.7999C48.8931 27.0262 48.9066 27.3521 48.9006 27.7776H45.524C45.5421 28.2724 45.6975 28.6195 45.9902 28.8186C46.1683 28.9423 46.3825 29.0042 46.633 29.0042C46.8985 29.0042 47.1142 28.9288 47.2802 28.7779C47.3707 28.6964 47.4507 28.5832 47.5201 28.4384H48.8372C48.804 28.7311 48.6517 29.0283 48.3801 29.3301C47.9576 29.8099 47.3662 30.0498 46.6058 30.0498C45.9782 30.0498 45.4244 29.8476 44.9447 29.4432C44.4649 29.0389 44.225 28.3811 44.225 27.4698C44.225 26.6158 44.4407 25.961 44.8722 25.5054C45.3068 25.0497 45.8695 24.8219 46.5605 24.8219Z" fill="var(--fill-0, #0F62AC)"/>
<path id="Vector_2" d="M40.6454 28.3117C40.6726 28.541 40.7314 28.704 40.8219 28.8005C40.9819 28.9725 41.2776 29.0585 41.7091 29.0585C41.9626 29.0585 42.1632 29.0208 42.3111 28.9454C42.462 28.87 42.5374 28.7568 42.5374 28.6059C42.5374 28.4611 42.4771 28.3509 42.3563 28.2755C42.2356 28.2001 41.7876 28.0703 41.0121 27.8862C40.4538 27.7474 40.06 27.5739 39.8307 27.3657C39.6014 27.1605 39.4867 26.8648 39.4867 26.4786C39.4867 26.0229 39.6647 25.6322 40.0208 25.3063C40.3799 24.9774 40.8838 24.8129 41.5326 24.8129C42.1481 24.8129 42.649 24.9366 43.0353 25.1841C43.4245 25.4285 43.6478 25.8524 43.7052 26.4559H42.4152C42.3971 26.29 42.3503 26.1587 42.2749 26.0622C42.1331 25.8871 41.8917 25.7996 41.5507 25.7996C41.27 25.7996 41.0694 25.8434 40.9487 25.9309C40.831 26.0184 40.7722 26.121 40.7722 26.2387C40.7722 26.3865 40.8355 26.4937 40.9623 26.5601C41.089 26.6295 41.5371 26.7486 42.3066 26.9176C42.8195 27.0383 43.2043 27.2209 43.4608 27.4653C43.7142 27.7127 43.841 28.022 43.841 28.3932C43.841 28.882 43.6584 29.2818 43.2933 29.5926C42.9312 29.9004 42.3699 30.0543 41.6095 30.0543C40.834 30.0543 40.2607 29.8914 39.8895 29.5655C39.5214 29.2366 39.3373 28.8187 39.3373 28.3117H40.6454Z" fill="var(--fill-0, #0F62AC)"/>
<path id="Vector_3" d="M36.8936 24.8356C37.4036 24.8356 37.82 24.9699 38.1429 25.2384C38.4687 25.504 38.6317 25.946 38.6317 26.5646V29.8869H37.31V26.886C37.31 26.6265 37.2753 26.4273 37.2059 26.2885C37.0792 26.0351 36.8378 25.9083 36.4817 25.9083C36.0442 25.9083 35.7439 26.0939 35.581 26.4651C35.4965 26.6612 35.4543 26.9116 35.4543 27.2164V29.8869H34.1688V24.9623H35.4135V25.682C35.5795 25.4285 35.7364 25.246 35.8843 25.1343C36.1498 24.9352 36.4862 24.8356 36.8936 24.8356Z" fill="var(--fill-0, #0F62AC)"/>
<path id="Vector_4" d="M31.132 25.8856C30.8333 25.8856 30.6009 25.9791 30.435 26.1662C30.272 26.3533 30.1694 26.6068 30.1272 26.9266H32.1323C32.1112 26.5857 32.0071 26.3277 31.82 26.1526C31.6359 25.9746 31.4066 25.8856 31.132 25.8856ZM31.132 24.8219C31.5424 24.8219 31.912 24.8989 32.2409 25.0528C32.5698 25.2067 32.8414 25.4496 33.0557 25.7815C33.2488 26.0742 33.374 26.4137 33.4313 26.7999C33.4645 27.0262 33.4781 27.3521 33.4721 27.7776H30.0955C30.1136 28.2724 30.269 28.6195 30.5617 28.8186C30.7397 28.9423 30.954 29.0042 31.2044 29.0042C31.47 29.0042 31.6857 28.9288 31.8517 28.7779C31.9422 28.6964 32.0222 28.5832 32.0916 28.4384H33.4087C33.3755 28.7311 33.2231 29.0283 32.9516 29.3301C32.5291 29.8099 31.9377 30.0498 31.1773 30.0498C30.5496 30.0498 29.9959 29.8476 29.5161 29.4432C29.0363 29.0389 28.7965 28.3811 28.7965 27.4698C28.7965 26.6158 29.0122 25.961 29.4437 25.5054C29.8782 25.0497 30.441 24.8219 31.132 24.8219Z" fill="var(--fill-0, #0F62AC)"/>
<path id="Vector_5" d="M26.4397 24.8356C26.9497 24.8356 27.3661 24.9699 27.689 25.2384C28.0149 25.504 28.1778 25.946 28.1778 26.5646V29.8869H26.8561V26.886C26.8561 26.6265 26.8214 26.4273 26.752 26.2885C26.6253 26.0351 26.3839 25.9083 26.0278 25.9083C25.5903 25.9083 25.2901 26.0939 25.1271 26.4651C25.0426 26.6612 25.0004 26.9116 25.0004 27.2164V29.8869H23.7149V24.9623H24.9596V25.682C25.1256 25.4285 25.2825 25.246 25.4304 25.1343C25.6959 24.9352 26.0324 24.8356 26.4397 24.8356Z" fill="var(--fill-0, #0F62AC)"/>
<path id="Vector_6" d="M22.6376 24.3649H21.3295V23.1744H22.6376V24.3649ZM21.3295 24.9533H22.6376V29.8869H21.3295V24.9533Z" fill="var(--fill-0, #0F62AC)"/>
<path id="Vector_7" d="M18.7642 24.8447C18.9815 24.8447 19.1957 24.887 19.4069 24.9714C19.6181 25.0559 19.8096 25.2038 19.9816 25.415C20.1204 25.587 20.2139 25.7982 20.2622 26.0487C20.2924 26.2147 20.3074 26.4576 20.3074 26.7774L20.2984 29.887H18.9769V26.7457C18.9769 26.5587 18.9468 26.4048 18.8864 26.2841C18.7718 26.0547 18.5606 25.9401 18.2529 25.9401C17.8969 25.9401 17.651 26.0879 17.5152 26.3836C17.4458 26.5406 17.4111 26.7291 17.4111 26.9494V29.887H16.1123V26.9494C16.1123 26.6567 16.0821 26.444 16.0218 26.3112C15.9132 26.0728 15.7005 25.9536 15.3837 25.9536C15.0156 25.9536 14.7682 26.0728 14.6415 26.3112C14.5721 26.447 14.5374 26.6492 14.5374 26.9177V29.887H13.2295V24.9624H14.4831V25.6821C14.643 25.4256 14.7939 25.243 14.9357 25.1344C15.1861 24.9413 15.5104 24.8447 15.9087 24.8447C16.2858 24.8447 16.5905 24.9277 16.8228 25.0937C17.0099 25.2476 17.1517 25.4452 17.2482 25.6866C17.4172 25.3969 17.6268 25.1842 17.8772 25.0484C18.1427 24.9126 18.4384 24.8447 18.7642 24.8447Z" fill="var(--fill-0, #0F62AC)"/>
<path id="Vector_8" d="M9.05623 24.9534V27.9271C9.05623 28.2077 9.08943 28.419 9.15581 28.5608C9.2735 28.8112 9.50433 28.9365 9.84833 28.9365C10.2889 28.9365 10.5906 28.7584 10.7536 28.4024C10.8381 28.2092 10.8803 27.9543 10.8803 27.6374V24.9534H12.1884V29.887H10.9346V29.1899C10.9226 29.205 10.8924 29.2503 10.8441 29.3257C10.7958 29.4012 10.7385 29.4675 10.6721 29.5249C10.4699 29.7059 10.2738 29.8296 10.0837 29.896C9.89661 29.9624 9.67633 29.9956 9.42286 29.9956C8.69263 29.9956 8.20077 29.7331 7.9473 29.208C7.80548 28.9184 7.73457 28.4914 7.73457 27.9271V24.9534H9.05623Z" fill="var(--fill-0, #0F62AC)"/>
<path id="Vector_9" d="M6.69299 29.8869H5.40301V23.2152H6.69299V29.8869Z" fill="var(--fill-0, #0F62AC)"/>
<path id="Vector_10" d="M0 23.2243H4.72994V24.3966H1.38503V25.931H4.31352V27.0897H1.38503V29.8869H0V23.2243Z" fill="var(--fill-0, #0F62AC)"/>
<path id="Vector_11" d="M30.5214 18.2997H29.2314V11.628H30.5214V18.2997Z" fill="var(--fill-0, #0F62AC)"/>
<path id="Vector_12" d="M26.9508 15.9007C26.8693 15.952 26.7863 15.9943 26.7018 16.0275C26.6204 16.0576 26.5072 16.0863 26.3624 16.1135L26.0727 16.1678C25.8011 16.2161 25.6065 16.2749 25.4888 16.3443C25.2896 16.462 25.1901 16.6446 25.1901 16.892C25.1901 17.1123 25.2504 17.2722 25.3711 17.3718C25.4948 17.4683 25.6442 17.5166 25.8192 17.5166C26.0968 17.5166 26.3518 17.4351 26.5841 17.2722C26.8195 17.1092 26.9417 16.812 26.9508 16.3805V15.9007ZM26.1677 15.2987C26.4061 15.2686 26.5766 15.2309 26.6792 15.1856C26.8633 15.1071 26.9553 14.9849 26.9553 14.819C26.9553 14.6168 26.8844 14.478 26.7426 14.4025C26.6038 14.3241 26.3986 14.2849 26.127 14.2849C25.8222 14.2849 25.6065 14.3603 25.4797 14.5112C25.3892 14.6228 25.3289 14.7737 25.2987 14.9638H24.054C24.0811 14.5323 24.2018 14.1777 24.4161 13.9001C24.757 13.4656 25.3424 13.2484 26.1723 13.2484C26.7124 13.2484 27.1922 13.3555 27.6116 13.5697C28.031 13.784 28.2408 14.1883 28.2408 14.7828V17.0459C28.2408 17.2028 28.2438 17.3929 28.2498 17.6162C28.2589 17.7852 28.2845 17.8998 28.3268 17.9602C28.369 18.0205 28.4324 18.0703 28.5169 18.1096V18.2997H27.1137C27.0745 18.2001 27.0473 18.1065 27.0322 18.019C27.0172 17.9315 27.0051 17.8319 26.996 17.7203C26.818 17.9134 26.6128 18.0779 26.3805 18.2137C26.1028 18.3736 25.789 18.4535 25.439 18.4535C24.9924 18.4535 24.6228 18.3268 24.3301 18.0733C24.0404 17.8169 23.8955 17.4548 23.8955 16.987C23.8955 16.3805 24.1294 15.9415 24.5971 15.6699C24.8536 15.522 25.2308 15.4164 25.7287 15.3531L26.1677 15.2987Z" fill="var(--fill-0, #0F62AC)"/>
<path id="Vector_13" d="M23.4841 13.2484C23.5082 13.2484 23.5278 13.2499 23.5429 13.2529C23.561 13.2529 23.5987 13.2544 23.6561 13.2574V14.5791C23.5746 14.57 23.5022 14.564 23.4388 14.561C23.3754 14.5579 23.3241 14.5564 23.2849 14.5564C22.7659 14.5564 22.4174 14.7254 22.2394 15.0634C22.1398 15.2535 22.09 15.5462 22.09 15.9415V18.2997H20.7909V13.366H22.0221V14.226C22.2212 13.8971 22.3948 13.6723 22.5426 13.5516C22.784 13.3494 23.0978 13.2484 23.4841 13.2484Z" fill="var(--fill-0, #0F62AC)"/>
<path id="Vector_14" d="M17.7773 14.2985C17.4786 14.2985 17.2463 14.392 17.0803 14.5791C16.9174 14.7662 16.8148 15.0196 16.7725 15.3395H18.7776C18.7565 14.9985 18.6524 14.7405 18.4653 14.5655C18.2813 14.3875 18.0519 14.2985 17.7773 14.2985ZM17.7773 13.2348C18.1877 13.2348 18.5574 13.3117 18.8863 13.4656C19.2152 13.6195 19.4868 13.8624 19.701 14.1943C19.8941 14.487 20.0193 14.8265 20.0767 15.2128C20.1099 15.4391 20.1235 15.765 20.1174 16.1904H16.7408C16.7589 16.6853 16.9143 17.0323 17.207 17.2315C17.3851 17.3552 17.5993 17.417 17.8498 17.417C18.1153 17.417 18.3311 17.3416 18.497 17.1907C18.5875 17.1093 18.6675 16.9961 18.7369 16.8513H20.054C20.0209 17.144 19.8685 17.4412 19.5969 17.7429C19.1744 18.2227 18.583 18.4626 17.8226 18.4626C17.195 18.4626 16.6412 18.2604 16.1615 17.8561C15.6817 17.4517 15.4418 16.7939 15.4418 15.8826C15.4418 15.0287 15.6575 14.3739 16.089 13.9182C16.5236 13.4626 17.0863 13.2348 17.7773 13.2348Z" fill="var(--fill-0, #0F62AC)"/>
<path id="Vector_15" d="M12.1694 13.2484C12.4681 13.2484 12.7336 13.3147 12.966 13.4475C13.1983 13.5773 13.3869 13.7583 13.5318 13.9907V11.637H14.8399V18.2997H13.5861V17.6162C13.402 17.9089 13.1923 18.1216 12.9569 18.2544C12.7216 18.3872 12.4289 18.4536 12.0788 18.4536C11.5025 18.4536 11.0167 18.2212 10.6214 17.7565C10.2291 17.2888 10.033 16.6898 10.033 15.9596C10.033 15.1177 10.2261 14.4554 10.6123 13.9726C11.0016 13.4898 11.5206 13.2484 12.1694 13.2484ZM12.45 17.3673C12.8151 17.3673 13.0927 17.2315 13.2828 16.9599C13.4729 16.6883 13.568 16.3368 13.568 15.9053C13.568 15.3018 13.4156 14.8703 13.1108 14.6108C12.9238 14.4539 12.7065 14.3754 12.4591 14.3754C12.0819 14.3754 11.8043 14.5187 11.6262 14.8054C11.4512 15.089 11.3637 15.4421 11.3637 15.8645C11.3637 16.3202 11.4527 16.6853 11.6307 16.9599C11.8118 17.2315 12.0849 17.3673 12.45 17.3673Z" fill="var(--fill-0, #0F62AC)"/>
<path id="Vector_16" d="M7.32263 14.2985C7.02389 14.2985 6.79154 14.392 6.62558 14.5791C6.46264 14.7662 6.36004 15.0196 6.3178 15.3395H8.32293C8.30181 14.9985 8.1977 14.7405 8.01062 14.5655C7.82655 14.3875 7.59722 14.2985 7.32263 14.2985ZM7.32263 13.2348C7.73301 13.2348 8.10265 13.3117 8.43156 13.4656C8.76047 13.6195 9.03204 13.8624 9.24628 14.1943C9.4394 14.487 9.56463 14.8265 9.62196 15.2128C9.65516 15.4391 9.66873 15.765 9.6627 16.1904H6.28611C6.30422 16.6853 6.45962 17.0323 6.75232 17.2315C6.93035 17.3552 7.14459 17.417 7.39505 17.417C7.66059 17.417 7.87634 17.3416 8.0423 17.1907C8.13283 17.1093 8.21279 16.9961 8.28219 16.8513H9.59933C9.56614 17.144 9.41376 17.4412 9.14218 17.7429C8.71973 18.2227 8.1283 18.4626 7.36789 18.4626C6.74025 18.4626 6.18653 18.2604 5.70675 17.8561C5.22697 17.4517 4.98708 16.7939 4.98708 15.8826C4.98708 15.0287 5.20283 14.3739 5.63433 13.9182C6.06885 13.4626 6.63162 13.2348 7.32263 13.2348Z" fill="var(--fill-0, #0F62AC)"/>
<path id="Vector_17" d="M0 11.637H4.72994V12.8093H1.38503V14.3437H4.31352V15.5024H1.38503V18.2997H0V11.637Z" fill="var(--fill-0, #0F62AC)"/>
<path id="Vector_18" d="M52.9056 2.71121C52.6069 2.71121 52.3745 2.80475 52.2086 2.99183C52.0456 3.17892 51.943 3.43239 51.9008 3.75225H53.9059C53.8848 3.41127 53.7807 3.15327 53.5936 2.97826C53.4095 2.80022 53.1802 2.71121 52.9056 2.71121ZM52.9056 1.64754C53.316 1.64754 53.6856 1.72448 54.0145 1.87838C54.3435 2.03227 54.615 2.27518 54.8293 2.6071C55.0224 2.8998 55.1476 3.23927 55.205 3.62551C55.2381 3.85182 55.2517 4.17771 55.2457 4.60318H51.8691C51.8872 5.09805 52.0426 5.44507 52.3353 5.64422C52.5133 5.76794 52.7276 5.8298 52.978 5.8298C53.2436 5.8298 53.4593 5.75436 53.6253 5.60348C53.7158 5.52201 53.7958 5.40886 53.8652 5.26401H55.1823C55.1491 5.55671 54.9967 5.85394 54.7252 6.15569C54.3027 6.63547 53.7113 6.87536 52.9509 6.87536C52.3232 6.87536 51.7695 6.67319 51.2897 6.26884C50.81 5.8645 50.5701 5.20668 50.5701 4.2954C50.5701 3.44144 50.7858 2.78664 51.2173 2.331C51.6518 1.87536 52.2146 1.64754 52.9056 1.64754Z" fill="var(--fill-0, #0F62AC)"/>
<path id="Vector_19" d="M47.2985 1.66112C47.5972 1.66112 47.8628 1.7275 48.0951 1.86027C48.3274 1.99003 48.516 2.17108 48.6609 2.40342V0.0497698H49.969V6.71242H48.7152V6.02896C48.5311 6.32165 48.3214 6.53439 48.086 6.66716C47.8507 6.79993 47.558 6.86631 47.208 6.86631C46.6316 6.86631 46.1458 6.63397 45.7505 6.16927C45.3582 5.70156 45.1621 5.10258 45.1621 4.37235C45.1621 3.53046 45.3552 2.86812 45.7414 2.38532C46.1307 1.90252 46.6497 1.66112 47.2985 1.66112ZM47.5791 5.78001C47.9442 5.78001 48.2218 5.64422 48.4119 5.37265C48.602 5.10107 48.6971 4.74953 48.6971 4.31803C48.6971 3.71453 48.5447 3.28303 48.2399 3.02352C48.0529 2.86661 47.8356 2.78816 47.5882 2.78816C47.211 2.78816 46.9334 2.93149 46.7553 3.21815C46.5803 3.5018 46.4928 3.85484 46.4928 4.27729C46.4928 4.73294 46.5818 5.09806 46.7599 5.37265C46.9409 5.64422 47.214 5.78001 47.5791 5.78001Z" fill="var(--fill-0, #0F62AC)"/>
<path id="Vector_20" d="M43.2253 4.31359C43.1438 4.36489 43.0608 4.40714 42.9763 4.44033C42.8948 4.4705 42.7817 4.49917 42.6368 4.52633L42.3472 4.58064C42.0756 4.62892 41.881 4.68776 41.7633 4.75717C41.5641 4.87485 41.4645 5.05741 41.4645 5.30484C41.4645 5.52512 41.5249 5.68505 41.6456 5.78463C41.7693 5.88119 41.9187 5.92947 42.0937 5.92947C42.3713 5.92947 42.6263 5.84799 42.8586 5.68505C43.094 5.5221 43.2162 5.22488 43.2253 4.79338V4.31359ZM42.4422 3.7116C42.6806 3.68143 42.8511 3.64371 42.9537 3.59844C43.1378 3.51999 43.2298 3.39778 43.2298 3.23182C43.2298 3.02965 43.1589 2.89084 43.0171 2.8154C42.8782 2.73695 42.6731 2.69772 42.4015 2.69772C42.0967 2.69772 41.881 2.77316 41.7542 2.92403C41.6637 3.03568 41.6034 3.18656 41.5732 3.37666H40.3285C40.3556 2.94516 40.4763 2.5906 40.6906 2.31299C41.0315 1.87847 41.6169 1.66121 42.4467 1.66121C42.9869 1.66121 43.4667 1.76833 43.8861 1.98257C44.3055 2.19681 44.5152 2.60116 44.5152 3.19561V5.45874C44.5152 5.61565 44.5183 5.80575 44.5243 6.02904C44.5333 6.19802 44.559 6.31269 44.6012 6.37304C44.6435 6.43339 44.7069 6.48318 44.7913 6.52241V6.71251H43.3882C43.349 6.61293 43.3218 6.51939 43.3067 6.43188C43.2916 6.34437 43.2796 6.2448 43.2705 6.13315C43.0925 6.32627 42.8873 6.49072 42.655 6.62651C42.3773 6.78644 42.0635 6.8664 41.7135 6.8664C41.2669 6.8664 40.8973 6.73967 40.6046 6.4862C40.3149 6.22971 40.17 5.86761 40.17 5.3999C40.17 4.79338 40.4039 4.35433 40.8716 4.08275C41.1281 3.9349 41.5053 3.82928 42.0032 3.76592L42.4422 3.7116Z" fill="var(--fill-0, #0F62AC)"/>
<path id="Vector_21" d="M36.8446 1.66112C37.1433 1.66112 37.4089 1.7275 37.6412 1.86027C37.8736 1.99003 38.0622 2.17108 38.207 2.40342V0.0497698H39.5151V6.71242H38.2613V6.02896C38.0772 6.32165 37.8675 6.53439 37.6322 6.66716C37.3968 6.79993 37.1041 6.86631 36.7541 6.86631C36.1777 6.86631 35.6919 6.63397 35.2966 6.16927C34.9043 5.70156 34.7082 5.10258 34.7082 4.37235C34.7082 3.53046 34.9013 2.86812 35.2876 2.38532C35.6768 1.90252 36.1958 1.66112 36.8446 1.66112ZM37.1252 5.78001C37.4903 5.78001 37.7679 5.64422 37.9581 5.37265C38.1482 5.10107 38.2432 4.74953 38.2432 4.31803C38.2432 3.71453 38.0908 3.28303 37.7861 3.02352C37.599 2.86661 37.3817 2.78816 37.1343 2.78816C36.7571 2.78816 36.4795 2.93149 36.3014 3.21815C36.1264 3.5018 36.0389 3.85484 36.0389 4.27729C36.0389 4.73294 36.1279 5.09806 36.306 5.37265C36.487 5.64422 36.7601 5.78001 37.1252 5.78001Z" fill="var(--fill-0, #0F62AC)"/>
<path id="Vector_22" d="M33.9565 1.19046H32.6484V5.64974e-05H33.9565V1.19046ZM32.6484 1.77888H33.9565V6.7125H32.6484V1.77888Z" fill="var(--fill-0, #0F62AC)"/>
<path id="Vector_23" d="M28.6612 5.13732C28.6884 5.36665 28.7472 5.5296 28.8377 5.62616C28.9976 5.79816 29.2934 5.88415 29.7249 5.88415C29.9783 5.88415 30.179 5.84644 30.3269 5.771C30.4777 5.69556 30.5532 5.5824 30.5532 5.43153C30.5532 5.28669 30.4928 5.17655 30.3721 5.10111C30.2514 5.02567 29.8033 4.89592 29.0278 4.71185C28.4696 4.57305 28.0758 4.39954 27.8465 4.19133C27.6171 3.98614 27.5025 3.69043 27.5025 3.30419C27.5025 2.84854 27.6805 2.45778 28.0366 2.13189C28.3957 1.80298 28.8996 1.63853 29.5483 1.63853C30.1639 1.63853 30.6648 1.76224 31.0511 2.00968C31.4403 2.2541 31.6636 2.67806 31.7209 3.28156H30.431C30.4129 3.11559 30.3661 2.98433 30.2906 2.88777C30.1488 2.71276 29.9074 2.62525 29.5664 2.62525C29.2858 2.62525 29.0852 2.669 28.9645 2.75651C28.8468 2.84402 28.7879 2.94661 28.7879 3.0643C28.7879 3.21215 28.8513 3.31928 28.978 3.38566C29.1048 3.45506 29.5529 3.57425 30.3223 3.74323C30.8353 3.86393 31.22 4.04649 31.4765 4.29091C31.73 4.53835 31.8567 4.84764 31.8567 5.21879C31.8567 5.70763 31.6742 6.10745 31.3091 6.41825C30.947 6.72604 30.3857 6.87993 29.6253 6.87993C28.8498 6.87993 28.2765 6.71699 27.9053 6.39109C27.5372 6.06219 27.3531 5.64426 27.3531 5.13732H28.6612Z" fill="var(--fill-0, #0F62AC)"/>
<path id="Vector_24" d="M26.9101 1.66121C26.9343 1.66121 26.9539 1.66272 26.969 1.66573C26.9871 1.66573 27.0248 1.66724 27.0821 1.67026V2.99193C27.0007 2.98287 26.9283 2.97684 26.8649 2.97382C26.8015 2.9708 26.7502 2.9693 26.711 2.9693C26.192 2.9693 25.8435 3.13828 25.6654 3.47624C25.5658 3.66634 25.5161 3.95904 25.5161 4.35433V6.71251H24.217V1.77889H25.4482V2.63888C25.6473 2.30997 25.8208 2.08517 25.9687 1.96447C26.2101 1.76229 26.5239 1.66121 26.9101 1.66121Z" fill="var(--fill-0, #0F62AC)"/>
<path id="Vector_25" d="M21.2026 2.71121C20.9039 2.71121 20.6715 2.80475 20.5055 2.99183C20.3426 3.17892 20.24 3.43239 20.1978 3.75225H22.2029C22.1818 3.41127 22.0777 3.15327 21.8906 2.97826C21.7065 2.80022 21.4772 2.71121 21.2026 2.71121ZM21.2026 1.64754C21.613 1.64754 21.9826 1.72448 22.3115 1.87838C22.6404 2.03227 22.912 2.27518 23.1262 2.6071C23.3194 2.8998 23.4446 3.23927 23.5019 3.62551C23.5351 3.85182 23.5487 4.17771 23.5427 4.60318H20.1661C20.1842 5.09805 20.3396 5.44507 20.6323 5.64422C20.8103 5.76794 21.0246 5.8298 21.275 5.8298C21.5406 5.8298 21.7563 5.75436 21.9223 5.60348C22.0128 5.52201 22.0928 5.40886 22.1622 5.26401H23.4793C23.4461 5.55671 23.2937 5.85394 23.0221 6.15569C22.5997 6.63547 22.0083 6.87536 21.2479 6.87536C20.6202 6.87536 20.0665 6.67319 19.5867 6.26884C19.1069 5.8645 18.867 5.20668 18.867 4.2954C18.867 3.44144 19.0828 2.78664 19.5143 2.331C19.9488 1.87536 20.5116 1.64754 21.2026 1.64754Z" fill="var(--fill-0, #0F62AC)"/>
<path id="Vector_26" d="M17.3239 1.77886H18.7089L16.9301 6.71248H15.5677L13.7979 1.77886H15.2463L16.2738 5.41797L17.3239 1.77886Z" fill="var(--fill-0, #0F62AC)"/>
<path id="Vector_27" d="M13.2153 1.19046H11.9072V5.64974e-05H13.2153V1.19046ZM11.9072 1.77888H13.2153V6.7125H11.9072V1.77888Z" fill="var(--fill-0, #0F62AC)"/>
<path id="Vector_28" d="M9.14197 1.66121C9.65193 1.66121 10.0683 1.79549 10.3912 2.06404C10.7171 2.32958 10.8801 2.77165 10.8801 3.39024V6.71251H9.55839V3.7116C9.55839 3.4521 9.52368 3.25294 9.45428 3.11414C9.32755 2.86067 9.08615 2.73393 8.73008 2.73393C8.29254 2.73393 7.9923 2.91951 7.82936 3.29066C7.74487 3.4868 7.70262 3.73725 7.70262 4.04202V6.71251H6.41716V1.78794H7.66188V2.50762C7.82785 2.25415 7.98476 2.07159 8.13261 1.95994C8.39816 1.76078 8.73461 1.66121 9.14197 1.66121Z" fill="var(--fill-0, #0F62AC)"/>
<path id="Vector_29" d="M0 0.0407593H1.41648V4.14155C1.41648 4.60021 1.47079 4.93515 1.5794 5.14638C1.74836 5.52055 2.11643 5.70763 2.68363 5.70763C3.24781 5.70763 3.61437 5.52055 3.78333 5.14638C3.89194 4.93515 3.94624 4.60021 3.94624 4.14155V0.0407593H5.36273V4.14155C5.36273 4.85066 5.25261 5.40286 5.03237 5.79816C4.62205 6.52236 3.83914 6.88446 2.68363 6.88446C1.52811 6.88446 0.743692 6.52236 0.330362 5.79816C0.110121 5.40286 0 4.85066 0 4.14155V0.0407593Z" fill="var(--fill-0, #0F62AC)"/>
</g>
</svg>
